<svg xmlns="http://www.w3.org/2000/svg" viewBox="0 0 38 37.86" width="30">
  <g data-name="Layer 2">
    <g data-name="Layer 1" fill="#93EBF1">
      <path d="M13 25.86l-7 4H3l-2-1-1-2v-2l2-2 26-15h4l1 1 1 2v1l-1 2-20 12z"/>
      <path d="M13.02 11.85l.13-8.06 1.02-1.72.51-.86L16.56 0l2.24.16 1.72 1.02.69 2.74-.13 8.06-.23 21.96-1.02 1.72-1.02 1.72-1.37.35-2.23-.17-.86-.51-1.21-1.88-.12-23.32z"/>
      <path d="M10 19.86l-6-4-3-2-1-1v-3l2-2 2-1 2 1 2 1 3 2 5 3-6 6zM24 18.86v8h-1l-1-1h-2v-5l4-2z"/>
      <path fill="#fff" d="M22 28.86l8 9h1l7-8v-1h-4v-9l-1-1h-6l-1 1v9h-4z"/>
    </g>
  </g>
</svg>
