<svg xmlns="http://www.w3.org/2000/svg" viewBox="0 0 38.24 38" width="30">
  <title>Chilly (heat resist)</title>
  <g data-name="Layer 2">
    <g data-name="Layer 1">
      <path d="M4.24 14.86a4.05 4.05 0 01-4-3 4.23 4.23 0 014-5 4.08 4.08 0 014 4 4.09 4.09 0 01-4 4z" fill="#ff9700"/>
      <circle cx="17.24" cy="18.86" r="7" fill="#ff9700"/>
      <path d="M4.09 30a4.07 4.07 0 01-4-3 4.24 4.24 0 014-5 4 4 0 010 8zM17.09 38a4.07 4.07 0 01-4-3 4.24 4.24 0 014-5 4 4 0 110 8zM30.09 15a4.07 4.07 0 01-4-3 4.24 4.24 0 014-5 4.08 4.08 0 014 4 4.08 4.08 0 01-4 4zM17.09 8a4.07 4.07 0 01-4-3 4.24 4.24 0 014-5 4.08 4.08 0 014 4 4.08 4.08 0 01-4 4z" fill="#ff9700"/>
      <path fill="#fff" d="M22.24 28.86h4v-9l1-1h6l1 1v9h4v1l-8 8-8-8"/>
    </g>
  </g>
</svg>
